<svg width="667" height="667" viewBox="0 0 667 667" fill="none" xmlns="http://www.w3.org/2000/svg">
<path d="M666.695 333.347C666.695 399.277 647.144 463.727 610.516 518.545C573.887 573.364 521.825 616.09 460.914 641.32C400.003 666.55 332.978 673.152 268.315 660.29C203.652 647.427 144.255 615.679 97.6353 569.06C51.0159 522.44 19.2676 463.043 6.40533 398.38C-6.45696 333.717 0.144434 266.692 25.3747 205.781C50.605 144.87 93.3309 92.8078 148.15 56.1792C202.968 19.5505 267.418 0 333.348 0C377.123 0 420.47 8.62229 460.914 25.3746C501.358 42.1268 538.106 66.681 569.06 97.6352C600.014 128.589 624.568 165.337 641.32 205.781C658.073 246.224 666.695 289.572 666.695 333.347ZM559.2 283.832C560.77 282.925 562.112 281.671 563.122 280.165C564.133 278.66 564.785 276.943 565.029 275.146C565.273 273.349 565.102 271.521 564.529 269.8C563.957 268.08 562.998 266.513 561.726 265.221L493.095 188.884C485.005 179.879 475.111 172.676 464.056 167.743C453.001 162.811 441.032 160.258 428.926 160.253H400.295C394.688 173.346 385.362 184.506 373.473 192.348C361.584 200.191 348.591 192.348 334.348 192.348C320.105 192.348 305.238 200.191 293.348 192.348C281.459 184.506 272.133 173.346 266.526 160.253H237.895C225.8 160.259 213.841 162.807 202.794 167.733C191.746 172.658 181.858 179.85 173.769 188.842L104.926 265.179C103.657 266.474 102.7 268.043 102.131 269.766C101.562 271.488 101.395 273.318 101.643 275.115C101.891 276.911 102.547 278.628 103.562 280.131C104.576 281.635 105.922 282.887 107.495 283.789L154.526 313.432C157.937 315.479 161.968 316.239 165.891 315.575C169.813 314.911 173.369 312.867 175.916 309.811L199.495 280.253V502.947C199.517 506.793 201.055 510.475 203.774 513.195C206.493 515.914 210.175 517.452 214.021 517.474H452.842C456.695 517.463 460.388 515.93 463.117 513.209C465.845 510.489 467.388 506.8 467.411 502.947V280.505L490.779 309.853C493.326 312.909 496.882 314.953 500.804 315.617C504.727 316.281 508.758 315.521 512.169 313.474L559.2 283.832Z" fill="#5D2B8A"/>
</svg>
